<svg width="44" height="56" viewBox="0 0 44 56" fill="none" xmlns="http://www.w3.org/2000/svg">
<g clip-path="url(#clip0_0_32)">
<path d="M23.8391 4.55226C22.6362 5.34723 21.364 5.88345 19.7618 5.67577C20.7718 4.40246 21.6939 3.22108 22.1676 1.77244C22.2759 1.43879 22.3672 1.09663 22.4434 0.747661C22.6295 -0.11029 22.2353 -0.0592211 21.6482 0.0820684C20.2744 0.412311 19.0241 1.05577 17.7417 1.62093C15.0483 3.24321 12.4547 4.99996 10.1385 7.45125C10.0607 6.18135 10.284 5.14125 10.4329 4.10116C10.5327 3.40322 10.6884 2.7138 10.822 2.01927C10.8592 1.82521 10.9489 1.61753 10.641 1.56816C8.43651 3.18193 6.93753 5.40851 5.43517 7.6334C4.47588 9.55868 3.5183 11.4823 2.55902 13.4075C2.57424 13.8093 2.38983 14.1599 2.23756 14.5072C1.96518 15.132 2.07346 15.7465 2.21557 16.3678C2.27817 16.8632 2.26463 17.3602 2.60639 17.8028C3.35419 18.7731 3.99878 18.8208 4.88531 17.9101C5.72786 17.2224 6.63976 16.6197 7.46031 15.9014C9.50745 14.6094 11.6663 13.5386 13.8995 12.6177C16.0092 11.6814 18.1985 10.9597 20.3675 10.18C22.7377 9.53144 25.0522 8.67349 27.4851 8.26154C27.7084 8.22409 27.9182 8.15089 28.1314 8.0862C28.7354 7.65893 29.4172 7.8615 30.0127 7.98407C33.3118 8.65987 36.4502 9.78168 39.2756 11.6763C40.5445 12.5275 41.1603 13.8229 41.5477 15.2392C42.0824 17.1866 42.304 19.18 42.2076 21.2006C42.1534 22.3377 41.7034 23.3353 40.9759 24.2051C39.9963 25.2776 38.7308 25.9159 37.4332 26.4572C35.7345 27.1654 33.9378 27.528 32.0971 27.5995C31.0549 27.6403 30.8028 27.2811 31.0261 26.2428C31.3239 24.8656 31.0346 24.3379 29.8198 24.0434C27.925 24.3549 26.0436 24.7362 24.1335 24.9524C23.9931 24.9677 23.856 24.966 23.7173 24.949C22.577 24.7703 21.4249 24.9643 20.2744 24.7856C19.0275 24.5932 17.8906 24.166 16.7976 23.5702C15.4628 22.365 14.6287 20.8806 14.2108 19.117C13.9266 17.9169 13.4596 17.682 12.2398 17.9169C11.3533 18.0871 10.5006 18.3442 9.79507 18.9536C9.64111 19.0864 9.43132 19.0949 9.24691 19.1596C7.87143 19.9409 6.65668 20.9146 5.68556 22.1811C5.07818 22.6305 4.92761 23.3165 4.75335 23.9923C4.4099 24.9252 4.06646 25.858 3.7247 26.7909C3.57244 27.5297 3.5792 28.2685 3.71963 29.0073C4.36591 31.3156 5.54344 33.4094 6.37245 35.6445C7.38756 38.3851 7.09656 41.1735 6.35215 43.8716C5.91734 45.4513 6.40629 46.3569 7.53814 47.2728C10.3043 49.513 13.2532 51.4774 16.2969 53.3056C17.7941 54.2045 19.327 55.0352 20.9156 55.7654C21.8055 56.1757 22.5364 56.0582 23.2318 55.4148C23.7478 54.9381 24.2689 54.4666 24.7883 53.9917C25.778 52.8001 26.7525 51.6 27.4056 50.17C27.9402 48.9972 28.0062 47.9928 27.0333 46.917C25.6849 45.4275 24.7527 43.6333 24.0354 41.7454C23.8527 41.2654 23.5667 40.7768 23.8121 40.2236C25.0319 40.1249 26.2551 40.0551 27.4715 39.9223C29.1769 39.7367 30.7453 39.221 31.8957 37.8336C31.9143 37.6702 31.933 37.5085 31.9516 37.345C31.9736 35.7449 31.4762 34.2316 31.1665 32.6876C31.1395 32.5497 31.0938 32.4152 31.0701 32.2756C30.7859 30.6091 30.8028 30.604 32.4557 30.3316C33.283 30.1954 34.1002 29.998 34.9208 29.8295C36.7801 29.1945 38.6242 28.534 40.2366 27.3577C41.3566 26.5407 42.326 25.5823 43.0924 24.4213C44.6827 20.2882 44.05 16.3065 42.2262 12.4406C41.4818 10.8626 40.0335 9.97744 38.5616 9.17056C37.2995 8.47943 35.946 7.99258 34.6365 7.40699C33.5385 7.08696 32.4304 6.79587 31.3442 6.4401C29.6574 5.88856 28.0197 6.16603 26.3837 6.64437C26.0064 6.75502 25.6207 6.84183 25.2552 6.98312C24.592 7.23847 24.2418 7.25889 24.3619 6.32094C24.438 5.72343 24.6495 4.94549 23.8391 4.55226Z" fill="white"/>
<path d="M2.69086 21.0033C2.22052 20.2117 1.72481 19.4355 1.29508 18.6218C1.13097 18.3102 1.01085 18.2592 0.860276 18.5486C-0.346014 20.8586 -0.455986 23.9022 1.63345 25.9041C1.69436 25.962 1.75696 26.0267 1.8314 26.0607C2.00227 26.1407 2.14608 26.3331 2.36602 26.2412C2.64518 26.1254 2.45569 25.899 2.45738 25.7271C2.46584 24.7721 2.82452 23.8478 2.68748 22.8826C2.84313 22.2561 2.83805 21.6297 2.69086 21.0033Z" fill="#FBFBFB"/>
<path d="M40.7688 23.2229C41.6587 20.947 41.2154 18.6506 40.8449 16.3627C40.4727 14.0697 39.2275 12.4509 37.1144 11.4687C34.4243 10.2175 31.7072 9.08205 28.7211 8.77734C26.7027 9.61146 26.0564 10.7605 26.3068 13.0058C26.4997 14.7268 26.8465 16.4087 27.4505 18.0344C27.9259 19.3128 28.6078 20.4227 29.9054 21.0151C32.8408 22.1369 35.8032 23.1633 38.8908 23.783C39.6302 23.9311 40.2782 23.8783 40.7671 23.2246L40.7688 23.2229Z" fill="white"/>
</g>
<defs>
<clipPath id="clip0_0_32">
<rect width="44" height="56" fill="white" transform="matrix(-1 0 0 1 44 0)"/>
</clipPath>
</defs>
</svg>
